<svg id="svg" version="1.1" xmlns="http://www.w3.org/2000/svg" xmlns:xlink="http://www.w3.org/1999/xlink" width="400" height="228.33333333333331" viewBox="0, 0, 400,228.33333333333331"><g id="svgg"><path id="path0" d="M70.047 129.812 L 69.888 169.617 84.801 184.520 L 99.714 199.423 99.829 184.748 L 99.943 170.074 200.000 170.074 L 300.057 170.074 300.171 184.748 L 300.286 199.423 315.199 184.520 L 330.112 169.617 329.953 129.812 L 329.794 90.006 200.000 90.006 L 70.206 90.006 70.047 129.812 M209.653 125.604 L 209.712 141.405 206.969 141.405 L 204.226 141.405 204.226 140.828 C 204.226 140.204,204.279 140.193,202.627 141.153 C 201.443 141.841,200.806 141.976,198.743 141.976 C 197.463 141.976,196.394 141.869,196.209 141.722 C 196.032 141.582,195.597 141.398,195.241 141.313 C 194.021 141.021,191.662 139.298,191.662 138.698 C 191.662 138.580,191.519 138.429,191.344 138.362 C 190.882 138.185,189.923 136.034,189.508 134.245 C 187.538 125.748,191.896 118.332,198.861 118.332 C 200.059 118.332,202.206 118.875,202.856 119.342 C 203.044 119.478,203.427 119.717,203.707 119.873 L 204.216 120.157 204.278 116.128 C 204.329 112.823,204.402 112.067,204.683 111.921 C 206.756 110.839,209.184 109.716,209.366 109.755 C 209.515 109.787,209.615 115.303,209.653 125.604 M222.414 114.975 C 222.378 119.449,222.488 120.597,222.901 120.046 C 223.926 118.679,229.331 117.895,231.068 118.862 C 231.445 119.072,231.880 119.244,232.035 119.245 C 232.625 119.248,235.509 122.258,236.051 123.437 C 237.007 125.516,237.150 126.008,237.332 127.841 C 237.584 130.372,237.335 134.800,236.910 135.346 C 236.810 135.474,236.664 135.848,236.586 136.177 C 236.137 138.058,233.588 140.637,231.296 141.527 C 229.980 142.039,225.784 142.171,225.221 141.718 C 225.044 141.577,224.643 141.383,224.329 141.289 C 224.015 141.194,223.478 140.920,223.137 140.679 L 222.515 140.242 222.369 140.823 C 222.224 141.404,222.219 141.405,219.621 141.405 L 217.019 141.405 217.019 126.791 L 217.019 112.176 217.761 111.780 C 220.239 110.460,222.158 109.684,222.301 109.945 C 222.384 110.098,222.435 112.361,222.414 114.975 M282.810 110.557 C 285.210 112.430,284.013 115.934,280.972 115.934 C 278.165 115.934,276.865 112.728,278.890 110.802 C 280.263 109.496,281.363 109.427,282.810 110.557 M121.370 119.221 C 122.923 120.061,122.901 120.058,122.901 119.475 C 122.901 119.044,123.053 119.018,125.528 119.018 L 128.155 119.018 128.155 130.082 C 128.155 141.824,128.052 143.217,127.013 145.445 C 125.826 147.992,123.508 149.508,119.931 150.075 C 117.669 150.434,117.210 150.392,116.970 149.800 C 116.855 149.517,116.298 148.624,115.732 147.815 C 114.483 146.029,114.467 146.060,116.733 145.860 C 117.740 145.770,118.615 145.614,118.678 145.513 C 118.740 145.411,119.216 145.256,119.736 145.169 C 121.523 144.867,122.901 143.002,122.901 140.884 C 122.901 140.243,122.872 140.218,122.501 140.543 C 121.319 141.583,120.089 141.960,117.854 141.968 C 115.658 141.976,115.493 141.936,113.356 140.867 C 110.164 139.272,108.226 134.882,108.397 129.640 C 108.462 127.649,109.024 124.841,109.445 124.397 C 109.559 124.278,109.652 124.043,109.652 123.874 C 109.652 123.552,110.557 122.156,110.851 122.026 C 110.945 121.984,111.022 121.841,111.022 121.709 C 111.022 121.489,112.069 120.388,112.279 120.388 C 112.329 120.388,112.639 120.139,112.968 119.834 C 113.297 119.528,114.151 119.106,114.864 118.895 C 115.578 118.684,116.265 118.472,116.391 118.425 C 117.261 118.095,120.140 118.556,121.370 119.221 M148.610 118.676 C 159.463 121.415,159.463 139.008,148.610 141.747 C 146.121 142.375,142.887 142.029,140.605 140.890 C 139.417 140.297,137.293 138.492,137.293 138.075 C 137.293 137.896,137.208 137.750,137.105 137.750 C 136.903 137.750,136.212 136.439,135.539 134.780 C 134.932 133.281,134.941 127.668,135.554 125.871 C 137.505 120.148,142.826 117.216,148.610 118.676 M175.566 118.676 C 179.079 119.563,182.234 122.479,182.865 125.423 C 182.958 125.858,183.150 126.357,183.291 126.532 C 184.177 127.628,183.457 134.238,182.173 136.790 C 178.470 144.154,166.598 143.700,163.118 136.062 C 161.978 133.559,161.515 127.372,162.401 126.485 C 162.538 126.348,162.653 126.026,162.657 125.768 C 162.661 125.511,162.892 124.837,163.171 124.271 C 165.465 119.615,170.421 117.378,175.566 118.676 M256.898 118.760 C 267.506 121.516,267.327 139.055,256.662 141.747 C 249.187 143.633,242.790 138.233,242.944 130.165 C 242.996 127.428,244.399 122.673,245.153 122.673 C 245.259 122.673,245.346 122.549,245.346 122.397 C 245.346 122.023,246.963 120.388,247.334 120.388 C 247.497 120.388,247.630 120.303,247.630 120.199 C 247.630 120.037,248.566 119.568,250.485 118.767 C 251.732 118.248,254.912 118.244,256.898 118.760 M283.669 127.984 L 283.729 136.836 284.926 136.860 C 285.584 136.874,286.893 136.899,287.836 136.917 L 289.549 136.950 289.614 139.178 L 289.680 141.405 280.991 141.405 L 272.302 141.405 272.302 139.110 C 272.302 137.407,272.375 136.826,272.587 136.853 C 272.744 136.874,274.081 136.878,275.557 136.863 L 278.241 136.836 278.241 130.213 L 278.241 123.590 276.356 123.618 C 275.320 123.633,273.983 123.632,273.387 123.616 L 272.302 123.587 272.302 121.298 L 272.302 119.010 277.955 119.071 L 283.609 119.132 283.669 127.984 M117.115 123.702 C 112.493 124.972,112.532 135.078,117.165 136.713 C 118.295 137.112,119.835 137.178,120.046 136.836 C 120.123 136.710,120.386 136.608,120.630 136.608 C 120.873 136.608,121.484 136.236,121.987 135.782 L 122.901 134.955 122.901 130.230 L 122.901 125.504 122.136 124.762 C 120.900 123.564,119.043 123.172,117.115 123.702 M144.062 123.704 C 139.040 125.084,139.004 135.032,144.016 136.692 C 148.299 138.111,151.391 135.150,151.184 129.827 C 150.993 124.898,148.262 122.551,144.062 123.704 M171.009 123.734 C 165.963 125.283,166.027 135.185,171.094 136.719 C 175.459 138.041,178.363 135.123,178.138 129.641 C 177.938 124.765,175.157 122.461,171.009 123.734 M197.830 123.734 C 194.653 124.830,193.319 130.182,195.246 134.099 C 196.806 137.268,200.991 138.054,203.477 135.645 L 204.226 134.919 204.226 130.211 L 204.226 125.504 203.461 124.762 C 202.164 123.505,199.765 123.067,197.830 123.734 M225.464 123.685 C 222.478 124.509,222.373 124.748,222.403 130.652 L 222.425 135.090 223.195 135.733 C 223.619 136.087,224.305 136.440,224.721 136.518 C 225.136 136.596,225.533 136.751,225.601 136.862 C 226.163 137.771,230.168 136.476,230.991 135.120 C 234.524 129.301,231.062 122.139,225.464 123.685 M252.085 123.708 C 250.616 124.105,249.070 125.701,248.855 127.041 C 248.777 127.534,248.623 127.992,248.514 128.060 C 248.168 128.274,248.290 131.991,248.683 133.192 C 250.041 137.342,255.905 138.436,258.017 134.932 C 261.537 129.092,257.865 122.145,252.085 123.708 " stroke="none" fill="#d22323" fill-rule="evenodd"></path><path id="path1" d="M209.252 23.718 C 209.252 27.098,208.943 28.720,207.876 30.954 C 207.676 31.373,205.838 36.528,205.377 37.965 C 205.130 38.734,204.687 38.456,212.167 42.228 C 216.335 44.329,218.200 45.163,218.276 44.957 C 218.335 44.794,218.411 43.272,218.444 41.576 L 218.504 38.492 221.395 38.378 C 225.653 38.210,225.746 38.128,228.630 32.010 C 229.300 30.590,229.814 29.396,229.772 29.356 C 229.593 29.183,227.076 28.098,226.853 28.098 C 226.718 28.098,226.429 27.999,226.210 27.878 C 225.762 27.628,224.153 26.948,222.958 26.501 C 222.519 26.337,221.439 25.886,220.560 25.500 C 219.179 24.894,218.607 24.782,216.375 24.678 C 213.806 24.558,213.787 24.553,213.405 23.887 C 212.317 21.989,210.571 20.336,209.652 20.333 C 209.289 20.331,209.252 20.644,209.252 23.718 M219.843 28.846 C 220.143 29.994,218.931 30.931,217.808 30.419 C 216.761 29.942,216.888 28.307,218.005 27.883 C 218.617 27.651,219.675 28.206,219.843 28.846 M170.987 36.781 C 169.609 38.303,169.863 39.099,172.622 41.913 L 174.754 44.087 174.754 60.802 C 174.754 75.915,174.791 77.574,175.130 78.108 C 176.228 79.835,178.020 80.364,179.606 79.429 C 181.434 78.351,181.414 78.475,181.458 68.279 L 181.496 59.280 195.374 59.222 L 209.252 59.163 209.269 67.902 C 209.281 73.890,209.371 76.922,209.555 77.531 C 210.214 79.712,212.899 80.552,214.660 79.126 C 216.045 78.006,216.068 77.819,216.088 67.978 L 216.105 59.085 217.290 54.326 C 218.024 51.382,218.394 49.488,218.261 49.360 C 218.048 49.155,207.042 43.631,203.269 41.836 L 201.284 40.891 189.614 40.891 L 177.945 40.891 176.886 39.920 C 176.303 39.386,175.227 38.358,174.495 37.636 C 172.986 36.147,171.818 35.862,170.987 36.781 M184.056 61.823 C 183.663 62.215,183.915 68.854,184.349 69.560 C 184.581 69.937,185.068 70.811,185.431 71.502 C 185.795 72.193,186.740 73.992,187.531 75.500 C 189.169 78.619,189.806 79.402,191.002 79.761 C 192.676 80.262,194.266 79.478,194.952 77.813 C 195.561 76.338,195.387 75.814,192.592 70.702 C 190.932 67.666,189.812 65.582,188.846 63.735 L 187.831 61.793 186.024 61.728 C 185.030 61.692,184.144 61.734,184.056 61.823 M70.131 77.556 L 70.131 79.954 72.530 79.954 L 74.929 79.954 74.929 77.556 L 74.929 75.157 72.530 75.157 L 70.131 75.157 70.131 77.556 M84.980 77.556 L 84.980 79.954 87.493 79.954 L 90.006 79.954 90.006 77.556 L 90.006 75.157 87.493 75.157 L 84.980 75.157 84.980 77.556 M100.057 77.556 L 100.057 79.954 102.456 79.954 L 104.854 79.954 104.854 77.556 L 104.854 75.157 102.456 75.157 L 100.057 75.157 100.057 77.556 M115.134 77.556 L 115.134 79.954 117.533 79.954 L 119.931 79.954 119.931 77.556 L 119.931 75.157 117.533 75.157 L 115.134 75.157 115.134 77.556 M129.983 77.556 L 129.983 79.954 132.496 79.954 L 135.009 79.954 135.009 77.556 L 135.009 75.157 132.496 75.157 L 129.983 75.157 129.983 77.556 M145.060 77.556 L 145.060 79.954 147.459 79.954 L 149.857 79.954 149.857 77.556 L 149.857 75.157 147.459 75.157 L 145.060 75.157 145.060 77.556 M250.143 77.556 L 250.143 79.954 252.541 79.954 L 254.940 79.954 254.940 77.556 L 254.940 75.157 252.541 75.157 L 250.143 75.157 250.143 77.556 M264.991 77.556 L 264.991 79.954 267.504 79.954 L 270.017 79.954 270.017 77.556 L 270.017 75.157 267.504 75.157 L 264.991 75.157 264.991 77.556 M280.069 77.556 L 280.069 79.954 282.467 79.954 L 284.866 79.954 284.866 77.556 L 284.866 75.157 282.467 75.157 L 280.069 75.157 280.069 77.556 M295.146 77.556 L 295.146 79.954 297.544 79.954 L 299.943 79.954 299.943 77.556 L 299.943 75.157 297.544 75.157 L 295.146 75.157 295.146 77.556 M309.994 77.556 L 309.994 79.954 312.507 79.954 L 315.020 79.954 315.020 77.556 L 315.020 75.157 312.507 75.157 L 309.994 75.157 309.994 77.556 M325.071 77.556 L 325.071 79.954 327.470 79.954 L 329.869 79.954 329.869 77.556 L 329.869 75.157 327.470 75.157 L 325.071 75.157 325.071 77.556 M206.682 111.185 L 204.455 112.244 204.455 116.316 C 204.455 120.491,204.333 121.001,203.562 120.071 C 201.944 118.121,196.100 118.342,193.392 120.454 C 187.302 125.207,188.133 137.864,194.740 140.969 C 196.999 142.031,200.868 141.926,202.959 140.745 C 204.483 139.886,204.408 139.890,204.497 140.662 L 204.569 141.291 206.910 141.356 L 209.252 141.421 209.252 125.765 C 209.252 117.154,209.175 110.113,209.081 110.118 C 208.986 110.123,207.907 110.603,206.682 111.185 M220.103 110.838 C 219.349 111.210,218.397 111.677,217.988 111.876 L 217.244 112.238 217.303 126.764 L 217.362 141.291 219.676 141.355 L 221.991 141.420 222.141 140.622 L 222.291 139.823 223.542 140.623 C 225.707 142.008,229.953 142.102,232.313 140.818 C 239.344 136.991,238.979 122.995,231.757 119.476 C 229.223 118.242,225.038 118.573,223.009 120.169 C 222.696 120.415,222.370 120.617,222.284 120.617 C 222.198 120.617,222.147 118.252,222.171 115.363 C 222.220 109.359,222.382 109.713,220.103 110.838 M279.076 110.860 C 278.011 111.864,277.811 112.930,278.452 114.186 C 279.565 116.368,282.529 116.350,283.571 114.156 C 284.937 111.275,281.392 108.675,279.076 110.860 M116.505 118.794 C 107.856 119.666,105.509 136.026,113.380 140.578 C 115.941 142.059,120.038 142.130,121.789 140.723 C 122.908 139.824,123.130 139.854,123.130 140.907 C 123.130 143.969,121.532 145.296,116.990 146.011 C 114.862 146.346,114.897 146.199,116.392 148.489 C 117.606 150.348,117.884 150.420,120.873 149.653 C 123.322 149.025,124.187 148.591,125.326 147.419 C 127.758 144.917,127.918 143.855,127.923 130.154 L 127.927 119.018 125.528 119.018 C 123.137 119.018,123.130 119.020,123.130 119.575 C 123.130 120.259,122.814 120.492,122.463 120.068 C 121.682 119.127,118.964 118.546,116.505 118.794 M144.146 118.804 C 137.819 119.280,133.843 126.227,135.589 133.756 C 135.911 135.144,136.088 135.624,136.644 136.608 C 136.750 136.796,136.929 137.161,137.042 137.419 C 138.708 141.226,146.312 142.978,150.953 140.623 C 154.701 138.722,156.139 135.834,156.139 130.211 C 156.139 122.013,152.133 118.203,144.146 118.804 M171.102 118.804 C 164.971 119.266,161.343 125.235,162.453 133.037 C 163.928 143.409,178.801 145.172,182.524 135.416 C 183.948 131.684,183.571 126.424,181.652 123.244 C 179.609 119.858,176.193 118.421,171.102 118.804 M252.085 118.795 C 240.206 119.812,240.168 140.467,252.042 141.602 C 260.072 142.368,264.573 137.961,264.245 129.655 C 264.082 125.552,263.445 123.866,261.139 121.447 C 259.076 119.283,256.206 118.442,252.085 118.795 M272.454 119.170 C 272.370 119.254,272.302 120.227,272.302 121.334 L 272.302 123.345 275.443 123.409 L 278.584 123.472 278.584 130.211 L 278.584 136.950 275.500 137.065 L 272.416 137.179 272.416 139.235 L 272.416 141.291 280.982 141.291 L 289.549 141.291 289.615 139.178 L 289.680 137.065 286.612 137.065 C 284.025 137.065,283.522 137.008,283.405 136.703 C 283.329 136.504,283.267 132.444,283.267 127.680 L 283.267 119.018 277.936 119.018 C 275.005 119.018,272.538 119.086,272.454 119.170 M120.984 123.731 C 121.374 123.915,122.017 124.380,122.412 124.766 L 123.130 125.468 123.130 130.192 L 123.130 134.916 122.273 135.748 C 119.411 138.529,115.267 137.321,113.915 133.312 C 111.828 127.125,116.045 121.411,120.984 123.731 M147.122 123.359 C 153.813 124.628,152.725 137.090,145.923 137.090 C 142.039 137.090,140.190 134.871,140.190 130.211 C 140.190 125.144,142.821 122.544,147.122 123.359 M174.327 123.385 C 179.419 124.477,179.988 134.978,175.056 136.853 C 174.062 137.231,171.227 137.145,170.308 136.709 C 165.457 134.407,166.250 124.380,171.362 123.376 C 172.773 123.098,172.992 123.099,174.327 123.385 M202.503 123.838 C 204.532 124.885,204.455 124.630,204.455 130.233 L 204.455 135.201 203.526 135.996 C 200.367 138.700,195.529 136.902,194.415 132.610 C 192.774 126.291,197.443 121.227,202.503 123.838 M229.759 123.857 C 230.530 124.329,231.301 125.262,231.879 126.420 C 233.071 128.808,232.058 134.799,230.227 136.193 C 228.345 137.626,224.438 137.358,222.836 135.686 L 222.184 135.005 222.163 130.413 C 222.139 125.233,222.161 125.143,223.710 124.186 C 225.557 123.044,228.198 122.901,229.759 123.857 M256.539 123.882 C 259.632 125.399,260.536 131.354,258.232 135.034 C 256.617 137.614,251.765 137.881,249.741 135.502 C 248.091 133.562,247.562 128.940,248.713 126.523 C 250.130 123.549,253.524 122.403,256.539 123.882 M160.137 182.638 L 160.137 185.037 162.536 185.037 L 164.934 185.037 164.934 182.638 L 164.934 180.240 162.536 180.240 L 160.137 180.240 160.137 182.638 M174.986 182.638 L 174.986 185.037 177.499 185.037 L 180.011 185.037 180.011 182.638 L 180.011 180.240 177.499 180.240 L 174.986 180.240 174.986 182.638 M190.063 182.638 L 190.063 185.037 192.461 185.037 L 194.860 185.037 194.860 182.638 L 194.860 180.240 192.461 180.240 L 190.063 180.240 190.063 182.638 M205.140 182.638 L 205.140 185.037 207.539 185.037 L 209.937 185.037 209.937 182.638 L 209.937 180.240 207.539 180.240 L 205.140 180.240 205.140 182.638 M219.989 182.638 L 219.989 185.037 222.501 185.037 L 225.014 185.037 225.014 182.638 L 225.014 180.240 222.501 180.240 L 219.989 180.240 219.989 182.638 M235.066 182.638 L 235.066 185.037 237.464 185.037 L 239.863 185.037 239.863 182.638 L 239.863 180.240 237.464 180.240 L 235.066 180.240 235.066 182.638 " stroke="none" fill="#ebeaea" fill-rule="evenodd"></path><path id="path2" d="M69.903 115.020 L 69.903 140.034 54.894 140.034 C 43.221 140.034,39.947 140.095,40.160 140.308 C 40.311 140.459,40.435 140.742,40.435 140.937 C 40.436 141.131,40.579 141.563,40.753 141.897 C 40.927 142.230,41.192 142.898,41.343 143.382 C 41.601 144.210,42.360 145.972,43.081 147.420 C 43.259 147.776,43.404 148.176,43.404 148.309 C 43.404 148.544,44.053 150.037,44.689 151.263 C 44.861 151.597,45.003 151.997,45.003 152.152 C 45.003 152.307,45.199 152.857,45.439 153.373 C 46.325 155.281,46.602 155.989,46.602 156.345 C 46.602 156.546,46.697 156.710,46.812 156.710 C 46.928 156.710,47.090 157.019,47.173 157.396 C 47.256 157.773,47.418 158.081,47.534 158.081 C 47.650 158.081,47.744 158.245,47.744 158.446 C 47.744 158.803,48.021 159.510,48.907 161.419 C 49.147 161.935,49.343 162.503,49.343 162.681 C 49.343 162.859,49.484 163.208,49.657 163.456 C 49.829 163.704,50.043 164.240,50.132 164.649 C 50.221 165.057,50.377 165.391,50.479 165.391 C 50.581 165.391,50.730 165.674,50.811 166.019 C 50.892 166.365,51.101 166.956,51.276 167.333 C 52.507 169.988,52.530 170.468,51.519 172.370 C 51.222 172.929,50.911 173.695,50.828 174.072 C 50.745 174.449,50.591 174.757,50.485 174.757 C 50.380 174.757,50.221 175.091,50.132 175.500 C 50.043 175.908,49.829 176.445,49.657 176.693 C 49.484 176.941,49.343 177.289,49.343 177.467 C 49.343 177.645,49.147 178.214,48.907 178.730 C 48.021 180.638,47.744 181.346,47.744 181.702 C 47.744 181.903,47.650 182.067,47.534 182.067 C 47.418 182.067,47.256 182.376,47.173 182.753 C 47.090 183.130,46.928 183.438,46.812 183.438 C 46.697 183.438,46.602 183.602,46.602 183.803 C 46.602 184.160,46.325 184.867,45.439 186.775 C 45.199 187.292,45.003 187.860,45.003 188.038 C 45.003 188.216,44.862 188.565,44.689 188.813 C 44.517 189.061,44.303 189.597,44.214 190.006 C 44.125 190.414,43.969 190.748,43.867 190.748 C 43.765 190.748,43.616 191.031,43.535 191.376 C 43.454 191.722,43.248 192.313,43.076 192.690 C 42.905 193.067,42.506 193.941,42.191 194.632 C 41.875 195.323,41.488 196.299,41.332 196.801 C 41.175 197.303,40.806 198.166,40.512 198.719 C 40.218 199.273,39.977 199.813,39.977 199.920 C 39.977 200.027,53.495 200.114,70.017 200.114 L 100.057 200.114 100.057 185.151 L 100.057 170.188 200.000 170.188 L 299.943 170.188 299.943 185.151 L 299.943 200.114 330.029 200.114 C 353.429 200.114,360.053 200.053,359.840 199.840 C 359.689 199.689,359.566 199.427,359.566 199.256 C 359.566 198.932,358.887 197.261,358.306 196.155 C 358.120 195.799,357.967 195.404,357.967 195.276 C 357.967 195.042,357.614 194.182,356.804 192.436 C 356.564 191.920,356.368 191.329,356.368 191.123 C 356.368 190.917,356.270 190.748,356.150 190.748 C 356.030 190.748,355.864 190.387,355.781 189.946 C 355.698 189.505,355.547 189.092,355.445 189.029 C 355.343 188.966,355.141 188.530,354.997 188.061 C 354.721 187.165,354.502 186.638,353.546 184.580 C 353.225 183.889,352.895 183.041,352.813 182.696 C 352.731 182.350,352.572 182.067,352.460 182.067 C 352.348 182.067,352.256 181.899,352.256 181.693 C 352.256 181.487,352.060 180.895,351.820 180.379 C 350.995 178.603,350.657 177.772,350.657 177.520 C 350.657 177.382,350.451 176.885,350.200 176.416 C 349.949 175.947,349.743 175.382,349.743 175.160 C 349.743 174.939,349.648 174.757,349.533 174.757 C 349.417 174.757,349.255 174.449,349.172 174.072 C 349.089 173.695,348.778 172.929,348.481 172.370 C 347.470 170.468,347.493 169.988,348.724 167.333 C 348.899 166.956,349.108 166.365,349.189 166.019 C 349.270 165.674,349.419 165.391,349.521 165.391 C 349.623 165.391,349.779 165.057,349.868 164.649 C 349.957 164.240,350.171 163.704,350.343 163.456 C 350.516 163.208,350.657 162.859,350.657 162.681 C 350.657 162.503,350.853 161.935,351.093 161.419 C 351.979 159.510,352.256 158.803,352.256 158.446 C 352.256 158.245,352.350 158.081,352.466 158.081 C 352.582 158.081,352.744 157.773,352.827 157.396 C 352.910 157.019,353.072 156.710,353.188 156.710 C 353.303 156.710,353.398 156.546,353.398 156.345 C 353.398 155.977,353.832 154.862,354.440 153.665 C 354.621 153.309,354.769 152.905,354.769 152.766 C 354.769 152.531,355.084 151.787,356.158 149.490 C 356.399 148.973,356.596 148.442,356.596 148.309 C 356.596 148.176,356.741 147.776,356.919 147.420 C 357.640 145.972,358.399 144.210,358.657 143.382 C 358.808 142.898,359.073 142.230,359.247 141.897 C 359.421 141.563,359.564 141.131,359.565 140.937 C 359.565 140.742,359.689 140.459,359.840 140.308 C 360.053 140.095,356.779 140.034,345.107 140.034 L 330.099 140.034 330.021 115.077 C 329.979 101.351,329.982 108.007,330.028 129.869 L 330.112 169.617 315.199 184.520 L 300.286 199.423 300.171 184.748 L 300.057 170.074 200.000 170.074 L 99.943 170.074 99.829 184.748 L 99.714 199.423 84.801 184.520 L 69.888 169.617 70.047 129.812 C 70.135 107.918,70.138 90.006,70.055 90.006 C 69.971 90.006,69.903 101.262,69.903 115.020 " stroke="none" fill="#841414" fill-rule="evenodd"></path><path id="path3" d="M0.000 114.220 L 0.000 228.441 200.000 228.441 L 400.000 228.441 400.000 114.220 L 400.000 0.000 200.000 0.000 L 0.000 0.000 0.000 114.220 M210.667 20.618 C 211.403 21.065,212.994 22.885,213.716 24.106 C 213.917 24.446,214.330 24.515,216.343 24.548 C 218.053 24.576,218.992 24.702,219.646 24.989 C 220.148 25.210,220.868 25.526,221.245 25.692 C 221.622 25.857,222.496 26.215,223.187 26.486 C 223.878 26.758,224.649 27.070,224.900 27.180 C 225.151 27.290,226.077 27.650,226.956 27.981 C 230.502 29.313,230.272 28.930,229.039 31.445 C 227.812 33.948,227.070 35.568,227.070 35.748 C 227.070 37.201,224.482 38.472,221.245 38.607 L 218.504 38.721 218.440 41.976 C 218.400 44.064,218.291 45.231,218.136 45.231 C 217.890 45.231,205.698 39.146,205.214 38.782 C 204.954 38.585,205.080 38.096,205.821 36.436 C 205.934 36.185,206.294 35.157,206.623 34.152 C 206.951 33.147,207.281 32.170,207.356 31.982 C 209.012 27.816,209.097 27.431,209.187 23.701 C 209.282 19.745,209.270 19.770,210.667 20.618 M217.908 28.180 C 217.536 28.365,217.339 28.682,217.291 29.174 C 217.161 30.506,218.923 31.063,219.551 29.889 C 220.138 28.793,219.019 27.630,217.908 28.180 M174.300 37.330 C 174.866 37.859,175.894 38.824,176.585 39.475 L 177.841 40.657 189.571 40.660 C 199.279 40.662,201.405 40.719,201.907 40.988 C 202.240 41.167,206.085 43.085,210.451 45.250 C 218.219 49.101,218.389 49.201,218.389 49.865 C 218.389 50.238,217.875 52.593,217.247 55.099 L 216.105 59.654 216.105 68.513 C 216.105 78.179,216.088 78.316,214.778 79.228 C 213.282 80.269,212.044 80.281,210.620 79.267 C 209.247 78.290,209.252 78.328,209.252 68.429 L 209.252 59.395 195.431 59.395 L 181.611 59.395 181.611 68.222 C 181.611 76.698,181.592 77.086,181.137 77.988 C 179.795 80.648,176.598 80.721,175.018 78.127 C 174.532 77.330,174.531 77.270,174.530 60.647 L 174.529 43.966 172.359 41.805 C 169.844 39.300,169.562 38.645,170.445 37.356 C 171.498 35.820,172.679 35.812,174.300 37.330 M188.712 63.278 C 189.190 64.220,189.666 65.094,189.769 65.220 C 189.873 65.346,190.356 66.219,190.844 67.162 C 191.331 68.104,192.010 69.389,192.353 70.017 C 192.696 70.645,193.375 71.930,193.861 72.873 C 194.348 73.815,194.849 74.659,194.974 74.749 C 195.620 75.210,195.228 78.010,194.393 78.895 C 192.363 81.046,189.808 80.212,188.131 76.853 C 187.760 76.109,187.182 75.037,186.848 74.472 C 186.514 73.906,185.712 72.424,185.067 71.177 L 183.895 68.910 183.895 65.171 L 183.895 61.433 185.869 61.499 L 187.842 61.565 188.712 63.278 M74.929 77.563 L 74.929 80.198 72.473 80.133 L 70.017 80.069 69.951 77.800 C 69.862 74.740,69.694 74.929,72.523 74.929 L 74.929 74.929 74.929 77.563 M89.956 77.499 L 89.891 80.069 87.493 80.069 L 85.094 80.069 85.030 77.499 L 84.965 74.929 87.493 74.929 L 90.021 74.929 89.956 77.499 M104.969 77.556 L 104.969 80.069 102.513 80.133 L 100.057 80.198 100.057 77.556 L 100.057 74.913 102.513 74.978 L 104.969 75.043 104.969 77.556 M119.931 77.563 L 119.931 80.198 117.476 80.133 L 115.020 80.069 114.954 77.800 C 114.865 74.740,114.696 74.929,117.526 74.929 L 119.931 74.929 119.931 77.563 M134.959 77.499 L 134.894 80.069 132.496 80.069 L 130.097 80.069 130.032 77.499 L 129.968 74.929 132.496 74.929 L 135.024 74.929 134.959 77.499 M149.971 77.556 L 149.971 80.069 147.516 80.133 L 145.060 80.198 145.060 77.556 L 145.060 74.913 147.516 74.978 L 149.971 75.043 149.971 77.556 M254.940 77.563 L 254.940 80.198 252.484 80.133 L 250.029 80.069 249.963 77.800 C 249.874 74.740,249.705 74.929,252.534 74.929 L 254.940 74.929 254.940 77.563 M269.968 77.499 L 269.903 80.069 267.504 80.069 L 265.106 80.069 265.041 77.499 L 264.976 74.929 267.504 74.929 L 270.032 74.929 269.968 77.499 M284.980 77.556 L 284.980 80.069 282.524 80.133 L 280.069 80.198 280.069 77.556 L 280.069 74.913 282.524 74.978 L 284.980 75.043 284.980 77.556 M299.943 77.563 L 299.943 80.198 297.487 80.133 L 295.031 80.069 294.966 77.800 C 294.877 74.740,294.708 74.929,297.537 74.929 L 299.943 74.929 299.943 77.563 M314.970 77.499 L 314.906 80.069 312.507 80.069 L 310.109 80.069 310.044 77.499 L 309.979 74.929 312.507 74.929 L 315.035 74.929 314.970 77.499 M329.983 77.556 L 329.983 80.069 327.527 80.133 L 325.071 80.198 325.071 77.556 L 325.071 74.913 327.527 74.978 L 329.983 75.043 329.983 77.556 M330.097 115.020 L 330.097 140.034 345.106 140.034 C 356.779 140.034,360.053 140.095,359.840 140.308 C 359.689 140.459,359.565 140.742,359.565 140.937 C 359.564 141.131,359.421 141.563,359.247 141.897 C 359.073 142.230,358.808 142.898,358.657 143.382 C 358.399 144.210,357.640 145.972,356.919 147.420 C 356.741 147.776,356.596 148.176,356.596 148.309 C 356.596 148.442,356.399 148.973,356.158 149.490 C 355.084 151.787,354.769 152.531,354.769 152.766 C 354.769 152.905,354.621 153.309,354.440 153.665 C 353.832 154.862,353.398 155.977,353.398 156.345 C 353.398 156.546,353.303 156.710,353.188 156.710 C 353.072 156.710,352.910 157.019,352.827 157.396 C 352.744 157.773,352.582 158.081,352.466 158.081 C 352.350 158.081,352.256 158.245,352.256 158.446 C 352.256 158.803,351.979 159.510,351.093 161.419 C 350.853 161.935,350.657 162.503,350.657 162.681 C 350.657 162.859,350.516 163.208,350.343 163.456 C 350.171 163.704,349.957 164.240,349.868 164.649 C 349.779 165.057,349.623 165.391,349.521 165.391 C 349.419 165.391,349.270 165.674,349.189 166.019 C 349.108 166.365,348.899 166.956,348.724 167.333 C 347.493 169.988,347.470 170.468,348.481 172.370 C 348.778 172.929,349.089 173.695,349.172 174.072 C 349.255 174.449,349.417 174.757,349.533 174.757 C 349.648 174.757,349.743 174.939,349.743 175.160 C 349.743 175.382,349.949 175.947,350.200 176.416 C 350.451 176.885,350.657 177.382,350.657 177.520 C 350.657 177.772,350.995 178.603,351.820 180.379 C 352.060 180.895,352.256 181.487,352.256 181.693 C 352.256 181.899,352.348 182.067,352.460 182.067 C 352.572 182.067,352.731 182.350,352.813 182.696 C 352.895 183.041,353.225 183.889,353.546 184.580 C 354.502 186.638,354.721 187.165,354.997 188.061 C 355.141 188.530,355.343 188.966,355.445 189.029 C 355.547 189.092,355.698 189.505,355.781 189.946 C 355.864 190.387,356.030 190.748,356.150 190.748 C 356.270 190.748,356.368 190.917,356.368 191.123 C 356.368 191.329,356.564 191.920,356.804 192.436 C 357.614 194.182,357.967 195.042,357.967 195.276 C 357.967 195.404,358.120 195.799,358.306 196.155 C 358.887 197.261,359.566 198.932,359.566 199.256 C 359.566 199.427,359.689 199.689,359.840 199.840 C 360.053 200.053,353.429 200.114,330.029 200.114 L 299.943 200.114 299.943 185.151 L 299.943 170.188 200.000 170.188 L 100.057 170.188 100.057 185.151 L 100.057 200.114 70.017 200.114 C 53.495 200.114,39.977 200.027,39.977 199.920 C 39.977 199.813,40.218 199.273,40.512 198.719 C 40.806 198.166,41.175 197.303,41.332 196.801 C 41.488 196.299,41.875 195.323,42.191 194.632 C 42.506 193.941,42.905 193.067,43.076 192.690 C 43.248 192.313,43.454 191.722,43.535 191.376 C 43.616 191.031,43.765 190.748,43.867 190.748 C 43.969 190.748,44.125 190.414,44.214 190.006 C 44.303 189.597,44.517 189.061,44.689 188.813 C 44.862 188.565,45.003 188.216,45.003 188.038 C 45.003 187.860,45.199 187.292,45.439 186.775 C 46.325 184.867,46.602 184.160,46.602 183.803 C 46.602 183.602,46.697 183.438,46.812 183.438 C 46.928 183.438,47.090 183.130,47.173 182.753 C 47.256 182.376,47.418 182.067,47.534 182.067 C 47.650 182.067,47.744 181.903,47.744 181.702 C 47.744 181.346,48.021 180.638,48.907 178.730 C 49.147 178.214,49.343 177.645,49.343 177.467 C 49.343 177.289,49.484 176.941,49.657 176.693 C 49.829 176.445,50.043 175.908,50.132 175.500 C 50.221 175.091,50.380 174.757,50.485 174.757 C 50.591 174.757,50.745 174.449,50.828 174.072 C 50.911 173.695,51.222 172.929,51.519 172.370 C 52.530 170.468,52.507 169.988,51.276 167.333 C 51.101 166.956,50.892 166.365,50.811 166.019 C 50.730 165.674,50.581 165.391,50.479 165.391 C 50.377 165.391,50.221 165.057,50.132 164.649 C 50.043 164.240,49.829 163.704,49.657 163.456 C 49.484 163.208,49.343 162.859,49.343 162.681 C 49.343 162.503,49.147 161.935,48.907 161.419 C 48.021 159.510,47.744 158.803,47.744 158.446 C 47.744 158.245,47.650 158.081,47.534 158.081 C 47.418 158.081,47.256 157.773,47.173 157.396 C 47.090 157.019,46.928 156.710,46.812 156.710 C 46.697 156.710,46.602 156.546,46.602 156.345 C 46.602 155.989,46.325 155.281,45.439 153.373 C 45.199 152.857,45.003 152.307,45.003 152.152 C 45.003 151.997,44.861 151.597,44.689 151.263 C 44.053 150.037,43.404 148.544,43.404 148.309 C 43.404 148.176,43.259 147.776,43.081 147.420 C 42.360 145.972,41.601 144.210,41.343 143.382 C 41.192 142.898,40.927 142.230,40.753 141.897 C 40.579 141.563,40.436 141.131,40.435 140.937 C 40.435 140.742,40.311 140.459,40.160 140.308 C 39.947 140.095,43.221 140.034,54.894 140.034 L 69.903 140.034 69.903 115.020 L 69.903 90.006 200.000 90.006 L 330.097 90.006 330.097 115.020 M164.934 182.524 L 164.934 185.037 162.421 185.037 L 159.909 185.037 159.909 182.677 C 159.909 181.378,159.977 180.247,160.061 180.164 C 160.145 180.080,161.275 180.011,162.574 180.011 L 164.934 180.011 164.934 182.524 M180.011 182.524 L 180.011 185.037 177.499 185.037 L 174.986 185.037 174.986 182.524 L 174.986 180.011 177.499 180.011 L 180.011 180.011 180.011 182.524 M195.039 182.581 L 195.104 185.037 192.583 185.037 L 190.063 185.037 190.063 182.517 L 190.063 179.996 192.519 180.061 L 194.974 180.126 195.039 182.581 M209.937 182.524 L 209.937 185.037 207.424 185.037 L 204.911 185.037 204.911 182.677 C 204.911 181.378,204.980 180.247,205.064 180.164 C 205.148 180.080,206.278 180.011,207.577 180.011 L 209.937 180.011 209.937 182.524 M225.014 182.524 L 225.014 185.037 222.501 185.037 L 219.989 185.037 219.989 182.524 L 219.989 180.011 222.501 180.011 L 225.014 180.011 225.014 182.524 M240.042 182.581 L 240.107 185.037 237.586 185.037 L 235.066 185.037 235.066 182.517 L 235.066 179.996 237.521 180.061 L 239.977 180.126 240.042 182.581 " stroke="none" fill="#3c4454" fill-rule="evenodd"></path><path id="path4" d="M208.592 28.352 C 208.451 28.756,208.376 29.126,208.425 29.175 C 208.474 29.224,208.629 28.933,208.770 28.530 C 208.910 28.126,208.985 27.756,208.937 27.707 C 208.888 27.658,208.733 27.948,208.592 28.352 M218.013 27.881 C 217.743 27.983,217.457 28.172,217.377 28.301 C 217.298 28.430,217.510 28.392,217.850 28.216 C 218.282 27.991,218.593 27.962,218.885 28.119 C 219.115 28.242,219.303 28.291,219.303 28.229 C 219.303 27.942,218.455 27.714,218.013 27.881 M227.984 28.440 C 227.984 28.505,228.401 28.726,228.911 28.930 C 229.601 29.206,229.801 29.395,229.697 29.670 C 229.584 29.967,229.613 29.983,229.844 29.754 C 230.025 29.574,230.051 29.389,229.914 29.252 C 229.639 28.977,227.984 28.281,227.984 28.440 M207.920 30.371 C 207.786 30.754,207.725 31.068,207.785 31.068 C 207.939 31.068,208.370 29.881,208.257 29.768 C 208.205 29.716,208.053 29.988,207.920 30.371 M226.750 35.888 C 226.483 36.424,226.473 36.533,226.709 36.338 C 226.990 36.104,227.366 35.180,227.180 35.180 C 227.138 35.180,226.945 35.499,226.750 35.888 M225.585 37.370 L 224.900 37.959 225.642 37.468 C 226.051 37.197,226.385 36.932,226.385 36.878 C 226.385 36.707,226.288 36.766,225.585 37.370 M205.068 38.236 C 204.937 38.578,205.314 39.068,205.700 39.056 C 205.832 39.053,205.764 38.947,205.549 38.822 C 205.334 38.696,205.217 38.443,205.288 38.258 C 205.359 38.073,205.366 37.921,205.303 37.921 C 205.240 37.921,205.134 38.063,205.068 38.236 M170.087 38.949 C 170.159 39.326,170.438 39.840,170.708 40.091 L 171.199 40.548 170.838 40.091 C 170.639 39.840,170.360 39.326,170.217 38.949 L 169.957 38.264 170.087 38.949 M218.538 38.549 C 218.480 38.644,219.270 38.693,220.295 38.659 C 223.497 38.553,223.860 38.456,221.201 38.416 C 219.795 38.395,218.597 38.455,218.538 38.549 M175.694 38.892 C 175.748 38.923,176.253 39.360,176.817 39.863 L 177.841 40.777 176.938 39.806 C 176.442 39.272,175.936 38.835,175.815 38.835 C 175.694 38.835,175.639 38.861,175.694 38.892 M189.720 40.887 C 196.254 40.952,201.753 41.090,201.942 41.193 C 202.130 41.297,202.085 41.220,201.841 41.022 C 201.448 40.704,200.047 40.669,189.619 40.716 L 177.841 40.769 189.720 40.887 M174.632 52.085 C 174.632 56.545,174.662 58.370,174.700 56.139 C 174.737 53.909,174.737 50.260,174.700 48.030 C 174.662 45.800,174.632 47.624,174.632 52.085 M216.464 57.469 C 216.380 57.804,216.355 58.122,216.409 58.176 C 216.463 58.230,216.576 58.000,216.660 57.665 C 216.744 57.330,216.769 57.012,216.715 56.958 C 216.661 56.905,216.548 57.134,216.464 57.469 M181.478 59.473 C 181.414 59.642,181.396 60.541,181.440 61.472 L 181.520 63.164 181.565 61.281 L 181.611 59.398 195.488 59.337 L 209.366 59.277 195.481 59.221 C 184.030 59.176,181.576 59.220,181.478 59.473 M174.632 68.875 C 174.632 73.649,174.663 75.635,174.700 73.287 C 174.737 70.940,174.737 67.034,174.700 64.607 C 174.663 62.180,174.633 64.101,174.632 68.875 M183.895 61.622 C 183.895 61.716,184.810 61.793,185.929 61.793 C 187.048 61.793,187.916 61.716,187.857 61.622 C 187.799 61.528,186.884 61.451,185.823 61.451 C 184.763 61.451,183.895 61.528,183.895 61.622 M181.473 68.532 C 181.473 70.354,181.508 71.099,181.552 70.188 C 181.595 69.278,181.595 67.787,181.552 66.876 C 181.508 65.965,181.473 66.710,181.473 68.532 M190.520 66.933 C 190.776 67.436,191.037 67.847,191.100 67.847 C 191.163 67.847,191.005 67.436,190.748 66.933 C 190.492 66.431,190.231 66.019,190.168 66.019 C 190.105 66.019,190.263 66.431,190.520 66.933 M186.316 73.559 C 186.658 74.188,186.975 74.666,187.019 74.622 C 187.118 74.523,185.956 72.416,185.803 72.416 C 185.743 72.416,185.974 72.930,186.316 73.559 M181.459 75.614 C 181.459 76.556,181.499 76.942,181.548 76.471 C 181.598 75.999,181.598 75.228,181.548 74.757 C 181.499 74.286,181.459 74.672,181.459 75.614 M70.001 75.230 C 69.937 75.396,69.915 76.553,69.951 77.800 L 70.017 80.069 72.416 80.080 L 74.814 80.092 72.473 80.015 L 70.131 79.939 70.131 77.556 L 70.131 75.173 72.587 75.099 L 75.043 75.026 72.580 74.977 C 70.714 74.940,70.089 75.002,70.001 75.230 M86.179 75.097 C 86.902 75.143,88.084 75.143,88.806 75.097 C 89.529 75.052,88.938 75.015,87.493 75.015 C 86.048 75.015,85.457 75.052,86.179 75.097 M102.399 75.095 L 104.854 75.173 104.854 77.556 L 104.854 79.939 102.513 80.015 L 100.171 80.092 102.570 80.080 L 104.969 80.069 104.969 77.556 L 104.969 75.043 102.456 75.030 L 99.943 75.017 102.399 75.095 M115.004 75.230 C 114.940 75.396,114.918 76.553,114.954 77.800 L 115.020 80.069 117.419 80.080 L 119.817 80.092 117.476 80.015 L 115.134 79.939 115.134 77.556 L 115.134 75.173 117.590 75.099 L 120.046 75.026 117.583 74.977 C 115.717 74.940,115.092 75.002,115.004 75.230 M131.182 75.097 C 131.905 75.143,133.087 75.143,133.809 75.097 C 134.532 75.052,133.941 75.015,132.496 75.015 C 131.051 75.015,130.460 75.052,131.182 75.097 M147.401 75.095 L 149.857 75.173 149.857 77.556 L 149.857 79.939 147.516 80.015 L 145.174 80.092 147.573 80.080 L 149.971 80.069 149.971 77.556 L 149.971 75.043 147.459 75.030 L 144.946 75.017 147.401 75.095 M250.013 75.230 C 249.949 75.396,249.926 76.553,249.963 77.800 L 250.029 80.069 252.427 80.080 L 254.826 80.092 252.484 80.015 L 250.143 79.939 250.143 77.556 L 250.143 75.173 252.599 75.099 L 255.054 75.026 252.591 74.977 C 250.726 74.940,250.100 75.002,250.013 75.230 M266.191 75.097 C 266.913 75.143,268.095 75.143,268.818 75.097 C 269.540 75.052,268.949 75.015,267.504 75.015 C 266.059 75.015,265.468 75.052,266.191 75.097 M282.410 75.095 L 284.866 75.173 284.866 77.556 L 284.866 79.939 282.524 80.015 L 280.183 80.092 282.581 80.080 L 284.980 80.069 284.980 77.556 L 284.980 75.043 282.467 75.030 L 279.954 75.017 282.410 75.095 M295.015 75.230 C 294.952 75.396,294.929 76.553,294.966 77.800 L 295.031 80.069 297.430 80.080 L 299.829 80.092 297.487 80.015 L 295.146 79.939 295.146 77.556 L 295.146 75.173 297.601 75.099 L 300.057 75.026 297.594 74.977 C 295.729 74.940,295.103 75.002,295.015 75.230 M311.194 75.097 C 311.916 75.143,313.098 75.143,313.821 75.097 C 314.543 75.052,313.952 75.015,312.507 75.015 C 311.062 75.015,310.471 75.052,311.194 75.097 M327.413 75.095 L 329.869 75.173 329.869 77.556 L 329.869 79.939 327.527 80.015 L 325.186 80.092 327.584 80.080 L 329.983 80.069 329.983 77.556 L 329.983 75.043 327.470 75.030 L 324.957 75.017 327.413 75.095 M209.255 77.118 C 209.257 77.359,209.363 77.710,209.491 77.898 C 209.660 78.149,209.681 78.056,209.569 77.556 C 209.381 76.716,209.251 76.533,209.255 77.118 M179.440 79.513 C 179.063 79.754,178.872 79.952,179.015 79.953 C 179.158 79.954,179.518 79.752,179.815 79.505 C 180.494 78.939,180.331 78.943,179.440 79.513 M86.294 80.123 C 86.953 80.169,88.033 80.169,88.692 80.123 C 89.352 80.077,88.812 80.039,87.493 80.039 C 86.174 80.039,85.634 80.077,86.294 80.123 M131.296 80.123 C 131.956 80.169,133.035 80.169,133.695 80.123 C 134.355 80.077,133.815 80.039,132.496 80.039 C 131.176 80.039,130.637 80.077,131.296 80.123 M266.305 80.123 C 266.965 80.169,268.044 80.169,268.704 80.123 C 269.363 80.077,268.824 80.039,267.504 80.039 C 266.185 80.039,265.645 80.077,266.305 80.123 M311.308 80.123 C 311.967 80.169,313.047 80.169,313.706 80.123 C 314.366 80.077,313.826 80.039,312.507 80.039 C 311.188 80.039,310.648 80.077,311.308 80.123 M208.681 110.026 C 208.231 110.378,208.232 110.382,208.738 110.231 L 209.252 110.078 209.252 125.741 C 209.252 136.102,209.330 141.405,209.482 141.405 C 209.799 141.405,209.683 109.830,209.366 109.735 C 209.240 109.698,208.932 109.828,208.681 110.026 M220.258 110.546 C 219.218 111.030,218.310 111.482,218.241 111.551 C 217.966 111.826,219.189 111.378,220.394 110.762 C 222.338 109.767,222.219 109.459,222.171 115.363 C 222.147 118.252,222.200 120.617,222.289 120.617 C 222.574 120.617,223.540 119.719,223.263 119.711 C 223.116 119.706,222.944 119.832,222.881 119.989 C 222.529 120.855,222.379 119.251,222.414 114.975 C 222.461 109.150,222.608 109.453,220.258 110.546 M280.346 109.820 C 279.643 109.947,278.010 111.529,278.022 112.072 C 278.028 112.373,278.125 112.289,278.339 111.798 C 278.837 110.654,279.883 110.051,281.208 110.144 C 281.826 110.187,282.259 110.159,282.171 110.081 C 281.920 109.859,280.921 109.716,280.346 109.820 M207.297 110.672 C 207.053 110.857,206.962 111.011,207.095 111.015 C 207.228 111.019,207.537 110.871,207.780 110.687 C 208.024 110.502,208.115 110.348,207.982 110.344 C 207.849 110.340,207.541 110.488,207.297 110.672 M283.064 110.897 C 283.267 111.154,283.546 111.571,283.685 111.822 C 283.824 112.073,283.941 112.152,283.945 111.997 C 283.949 111.842,283.669 111.426,283.324 111.072 C 282.978 110.718,282.861 110.640,283.064 110.897 M204.500 111.982 C 204.308 112.174,204.226 113.449,204.226 116.254 C 204.226 119.363,204.165 120.190,203.952 119.977 C 203.556 119.581,203.204 119.640,203.541 120.046 C 204.335 121.003,204.455 120.516,204.455 116.311 C 204.455 112.309,204.464 112.230,204.969 111.986 C 205.308 111.823,205.362 111.733,205.128 111.723 C 204.934 111.715,204.651 111.831,204.500 111.982 M217.419 111.954 C 216.996 112.200,216.770 141.405,217.190 141.405 C 217.284 141.405,217.334 134.864,217.301 126.869 C 217.244 113.207,217.265 112.316,217.644 112.028 C 218.120 111.667,217.987 111.623,217.419 111.954 M283.979 112.888 C 283.964 113.098,283.893 113.458,283.821 113.688 C 283.696 114.084,283.703 114.085,283.950 113.699 C 284.094 113.475,284.165 113.116,284.108 112.900 C 284.015 112.546,284.002 112.545,283.979 112.888 M278.143 113.992 C 278.634 115.931,281.537 116.687,283.023 115.263 C 283.408 114.894,283.723 114.483,283.722 114.349 C 283.722 114.215,283.491 114.379,283.208 114.713 C 281.811 116.366,279.495 116.151,278.466 114.273 C 278.142 113.683,278.042 113.596,278.143 113.992 M116.391 118.425 C 116.265 118.472,115.597 118.680,114.906 118.886 C 114.215 119.092,113.392 119.471,113.078 119.727 C 112.423 120.263,112.486 120.245,114.310 119.394 C 115.692 118.750,118.822 118.491,120.199 118.908 C 120.608 119.032,120.671 119.006,120.471 118.795 C 120.228 118.538,116.891 118.236,116.391 118.425 M143.401 118.537 C 142.929 118.637,142.466 118.802,142.373 118.904 C 142.280 119.007,142.398 119.021,142.635 118.935 C 143.168 118.743,147.445 118.713,148.637 118.893 C 149.423 119.012,149.455 118.999,148.943 118.768 C 148.232 118.448,144.556 118.294,143.401 118.537 M170.357 118.537 C 169.885 118.637,169.422 118.802,169.329 118.904 C 169.236 119.007,169.354 119.021,169.591 118.935 C 170.124 118.743,174.401 118.713,175.593 118.893 C 176.379 119.012,176.411 118.999,175.899 118.768 C 175.188 118.448,171.512 118.294,170.357 118.537 M196.720 118.594 C 195.648 118.903,195.887 118.970,197.487 118.811 C 198.241 118.736,199.475 118.734,200.228 118.807 C 201.877 118.966,202.051 118.904,200.878 118.579 C 199.817 118.284,197.771 118.292,196.720 118.594 M226.728 118.425 C 226.602 118.472,225.908 118.686,225.186 118.900 C 224.464 119.114,223.815 119.383,223.743 119.498 C 223.672 119.613,224.183 119.495,224.880 119.234 C 226.178 118.748,229.398 118.564,230.540 118.909 C 230.946 119.032,231.008 119.006,230.808 118.795 C 230.565 118.538,227.228 118.236,226.728 118.425 M251.513 118.499 C 251.074 118.551,250.611 118.700,250.485 118.831 C 250.329 118.995,250.415 119.021,250.762 118.917 C 254.983 117.643,260.935 119.939,262.810 123.564 C 263.023 123.977,263.253 124.259,263.321 124.191 C 263.389 124.123,263.211 123.677,262.926 123.199 C 260.762 119.577,256.674 117.893,251.513 118.499 M122.932 119.442 C 122.909 119.842,122.805 119.943,122.526 119.836 C 122.209 119.715,122.197 119.747,122.448 120.050 C 122.834 120.515,123.201 120.156,123.066 119.444 L 122.963 118.903 122.932 119.442 M127.979 129.983 C 127.948 136.077,127.873 141.473,127.814 141.976 L 127.705 142.890 127.933 142.006 C 128.072 141.462,128.136 136.842,128.098 130.012 L 128.037 118.903 127.979 129.983 M141.049 119.357 C 140.643 119.668,140.669 119.676,141.348 119.449 C 142.123 119.191,142.301 119.018,141.791 119.018 C 141.627 119.018,141.293 119.170,141.049 119.357 M150.964 119.809 C 152.449 120.609,154.194 122.246,154.789 123.397 C 155.188 124.168,155.346 124.231,155.167 123.548 C 154.979 122.829,152.194 120.103,151.050 119.518 C 149.459 118.705,149.385 118.958,150.964 119.809 M168.005 119.357 C 167.599 119.668,167.625 119.676,168.304 119.449 C 169.079 119.191,169.257 119.018,168.747 119.018 C 168.583 119.018,168.249 119.170,168.005 119.357 M176.604 119.104 C 176.895 119.369,179.122 120.384,179.008 120.199 C 178.838 119.924,177.119 119.018,176.768 119.018 C 176.625 119.018,176.551 119.057,176.604 119.104 M194.498 119.427 C 193.624 119.910,192.576 120.743,192.576 120.954 C 192.576 121.041,192.964 120.805,193.438 120.429 C 193.912 120.054,194.657 119.591,195.094 119.401 C 195.531 119.211,195.734 119.051,195.545 119.046 C 195.357 119.041,194.885 119.212,194.498 119.427 M201.961 119.101 C 202.421 119.504,203.171 119.745,202.885 119.398 C 202.712 119.189,202.412 119.018,202.218 119.018 C 202.024 119.018,201.908 119.055,201.961 119.101 M231.182 119.096 C 231.182 119.156,231.636 119.425,232.192 119.694 C 233.152 120.159,234.346 121.286,235.468 122.787 C 235.804 123.236,235.930 123.315,235.834 123.015 C 235.445 121.805,231.182 118.214,231.182 119.096 M248.601 119.534 C 248.067 119.802,247.630 120.117,247.630 120.233 C 247.630 120.349,247.763 120.333,247.927 120.198 C 248.090 120.063,248.681 119.749,249.240 119.501 C 249.799 119.253,250.103 119.049,249.914 119.048 C 249.726 119.047,249.135 119.266,248.601 119.534 M283.267 127.666 C 283.267 137.773,283.150 137.077,284.833 137.022 L 286.122 136.980 284.923 136.896 L 283.724 136.812 283.724 128.043 C 283.724 122.443,283.641 119.222,283.495 119.132 C 283.344 119.039,283.267 121.941,283.267 127.666 M111.499 120.984 C 111.196 121.286,110.998 121.582,111.059 121.643 C 111.120 121.704,111.464 121.447,111.824 121.071 C 112.597 120.265,112.302 120.186,111.499 120.984 M138.662 120.911 C 138.004 121.491,137.173 122.444,137.324 122.444 C 137.380 122.444,137.880 121.982,138.435 121.416 C 139.502 120.329,139.622 120.063,138.662 120.911 M165.620 120.911 C 164.904 121.549,163.687 123.114,163.495 123.644 C 163.258 124.297,163.523 124.098,163.925 123.322 C 164.130 122.925,164.764 122.103,165.333 121.495 C 166.437 120.314,166.551 120.082,165.620 120.911 M180.385 121.547 C 181.375 122.680,181.758 123.318,182.710 125.414 C 182.960 125.966,182.964 125.962,182.824 125.300 C 182.578 124.135,181.812 122.891,180.517 121.556 L 179.274 120.274 180.385 121.547 M246.149 121.298 C 245.661 121.798,245.306 122.249,245.360 122.299 C 245.415 122.349,245.904 121.940,246.447 121.389 C 246.989 120.839,247.344 120.388,247.235 120.388 C 247.126 120.388,246.638 120.798,246.149 121.298 M191.488 121.983 C 190.663 123.028,189.671 125.211,189.513 126.328 C 189.386 127.227,189.435 127.155,189.904 125.757 C 190.548 123.841,190.988 122.966,191.788 122.015 C 192.118 121.623,192.302 121.308,192.196 121.315 C 192.091 121.322,191.772 121.622,191.488 121.983 M110.156 122.826 C 109.869 123.277,109.663 123.724,109.700 123.820 C 109.736 123.916,110.045 123.543,110.385 122.991 C 110.726 122.439,110.932 121.992,110.842 121.997 C 110.753 122.002,110.444 122.376,110.156 122.826 M244.251 124.129 C 243.852 124.947,243.488 126.123,243.419 126.813 L 243.297 128.041 243.587 126.670 C 243.747 125.917,244.198 124.709,244.589 123.986 C 244.981 123.264,245.225 122.673,245.131 122.673 C 245.038 122.673,244.642 123.328,244.251 124.129 M117.350 123.350 C 116.872 123.443,116.369 123.631,116.232 123.768 C 116.083 123.917,116.514 123.878,117.313 123.670 C 118.489 123.363,118.796 123.361,119.970 123.657 C 120.700 123.841,121.246 123.908,121.183 123.807 C 121.065 123.616,118.973 123.110,118.492 123.156 C 118.342 123.170,117.827 123.258,117.350 123.350 M144.264 123.389 C 143.764 123.506,143.261 123.695,143.147 123.809 C 143.033 123.924,143.493 123.876,144.171 123.703 C 144.848 123.531,145.660 123.345,145.974 123.291 C 146.469 123.205,146.454 123.191,145.860 123.184 C 145.483 123.179,144.765 123.271,144.264 123.389 M172.701 123.291 C 173.015 123.345,173.812 123.527,174.472 123.695 C 175.131 123.863,175.619 123.915,175.555 123.812 C 175.413 123.582,173.328 123.118,172.633 123.161 C 172.188 123.188,172.195 123.203,172.701 123.291 M198.086 123.359 C 196.769 123.670,195.096 125.274,194.752 126.556 C 194.668 126.870,194.903 126.613,195.274 125.985 C 196.650 123.657,198.597 122.929,201.429 123.683 C 202.089 123.859,202.576 123.917,202.512 123.813 C 202.196 123.302,199.498 123.025,198.086 123.359 M225.649 123.347 C 222.583 123.943,222.137 124.846,222.163 130.410 C 222.186 135.514,222.265 135.778,223.986 136.496 C 225.161 136.986,225.768 137.131,225.617 136.886 C 225.539 136.762,225.136 136.596,224.721 136.518 C 224.305 136.440,223.619 136.087,223.195 135.733 L 222.425 135.090 222.403 130.652 C 222.373 124.590,222.528 124.303,226.271 123.507 C 227.850 123.171,227.294 123.028,225.649 123.347 M252.317 123.389 C 251.817 123.506,251.314 123.695,251.199 123.809 C 251.085 123.924,251.546 123.876,252.223 123.703 C 252.901 123.531,253.712 123.345,254.026 123.291 C 254.522 123.205,254.507 123.191,253.912 123.184 C 253.535 123.179,252.817 123.271,252.317 123.389 M147.564 123.706 C 148.124 123.881,148.627 123.979,148.680 123.926 C 148.833 123.773,147.600 123.356,147.044 123.373 C 146.751 123.382,146.965 123.520,147.564 123.706 M170.441 123.606 C 169.528 123.971,170.023 124.045,171.111 123.706 C 171.817 123.486,171.955 123.388,171.559 123.388 C 171.245 123.387,170.742 123.486,170.441 123.606 M228.704 123.661 C 229.794 124.012,230.677 124.686,231.102 125.492 C 231.290 125.850,231.496 126.090,231.560 126.026 C 232.022 125.564,229.432 123.347,228.464 123.376 C 227.945 123.391,227.976 123.427,228.704 123.661 M255.682 123.738 C 257.849 124.401,259.222 126.932,259.319 130.440 L 259.372 132.381 259.455 130.554 C 259.629 126.718,257.509 123.257,255.063 123.382 C 254.807 123.395,255.086 123.555,255.682 123.738 M272.357 123.490 C 272.437 123.569,273.793 123.637,275.371 123.640 L 278.241 123.646 278.241 130.234 L 278.241 136.822 275.557 136.898 L 272.873 136.974 275.728 136.962 L 278.584 136.950 278.584 130.211 L 278.584 123.472 275.398 123.408 C 273.646 123.373,272.277 123.410,272.357 123.490 M235.988 123.712 C 235.992 123.832,236.150 124.186,236.340 124.500 L 236.684 125.071 236.534 124.500 C 236.378 123.904,235.973 123.320,235.988 123.712 M136.012 124.639 C 135.822 125.093,135.725 125.521,135.795 125.591 C 135.865 125.661,135.922 125.663,135.922 125.594 C 135.922 125.526,136.078 125.097,136.268 124.642 C 136.458 124.187,136.556 123.815,136.485 123.815 C 136.414 123.815,136.201 124.186,136.012 124.639 M114.955 124.900 C 114.237 125.813,113.748 126.962,114.196 126.686 C 114.335 126.600,114.449 126.397,114.449 126.234 C 114.449 126.072,114.758 125.513,115.136 124.991 C 115.992 123.810,115.864 123.745,114.955 124.900 M122.159 124.744 L 122.901 125.550 122.901 130.253 L 122.901 134.955 121.987 135.782 C 121.484 136.236,120.873 136.608,120.630 136.608 C 120.386 136.608,120.113 136.728,120.022 136.875 C 119.909 137.057,119.983 137.093,120.255 136.989 C 120.475 136.905,120.751 136.836,120.869 136.836 C 120.987 136.836,121.544 136.412,122.107 135.893 L 123.130 134.950 123.122 130.239 C 123.115 125.277,123.118 125.295,121.984 124.391 C 121.603 124.088,121.661 124.204,122.159 124.744 M141.918 124.786 C 139.429 127.358,139.501 133.382,142.048 135.721 L 142.890 136.493 142.173 135.694 C 139.705 132.942,139.699 127.380,142.161 124.786 C 142.548 124.377,142.814 124.043,142.751 124.043 C 142.688 124.043,142.313 124.377,141.918 124.786 M148.943 124.106 C 148.943 124.184,149.192 124.516,149.495 124.843 C 149.798 125.171,150.256 125.870,150.512 126.397 C 150.767 126.924,150.982 127.223,150.988 127.061 C 151.007 126.575,150.171 125.109,149.537 124.518 C 149.210 124.213,148.943 124.028,148.943 124.106 M168.930 124.731 C 168.570 125.107,168.360 125.414,168.463 125.414 C 168.695 125.414,169.790 124.254,169.670 124.135 C 169.623 124.087,169.290 124.355,168.930 124.731 M176.388 124.618 C 176.719 124.993,177.211 125.711,177.480 126.214 C 177.774 126.761,177.909 126.899,177.819 126.556 C 177.632 125.852,177.037 124.989,176.324 124.390 C 175.861 124.000,175.869 124.032,176.388 124.618 M203.484 124.762 L 204.226 125.550 204.226 130.253 L 204.226 134.955 203.347 135.750 C 202.843 136.205,202.102 136.612,201.610 136.705 C 201.139 136.793,200.804 136.917,200.867 136.980 C 201.163 137.276,202.692 136.710,203.526 135.996 L 204.455 135.201 204.455 130.233 C 204.455 125.371,204.444 125.255,203.941 124.803 C 203.026 123.979,202.720 123.952,203.484 124.762 M249.804 124.953 C 249.316 125.453,248.961 125.906,249.015 125.959 C 249.070 126.012,249.507 125.603,249.987 125.050 C 251.074 123.797,250.981 123.748,249.804 124.953 M109.192 124.850 C 109.058 125.203,108.985 125.655,109.031 125.853 C 109.076 126.051,109.232 125.808,109.376 125.313 C 109.684 124.258,109.547 123.915,109.192 124.850 M155.494 124.843 C 155.569 125.220,155.716 125.682,155.821 125.871 C 156.163 126.486,156.045 125.614,155.682 124.843 L 155.359 124.158 155.494 124.843 M162.885 124.826 C 162.525 125.773,162.623 126.087,163.005 125.208 C 163.190 124.781,163.292 124.381,163.231 124.320 C 163.170 124.259,163.014 124.486,162.885 124.826 M263.401 124.529 C 263.396 124.607,263.559 125.121,263.763 125.671 C 264.005 126.326,264.178 127.774,264.262 129.869 C 264.387 132.939,264.674 133.299,264.736 130.463 C 264.775 128.698,263.498 123.022,263.401 124.529 M236.816 126.099 C 237.058 127.750,237.368 128.458,237.221 127.025 C 237.151 126.341,236.998 125.621,236.880 125.426 C 236.738 125.192,236.717 125.420,236.816 126.099 M167.904 126.099 C 167.758 126.372,167.690 126.647,167.753 126.710 C 167.816 126.772,167.986 126.601,168.132 126.328 C 168.278 126.055,168.347 125.780,168.284 125.718 C 168.221 125.655,168.050 125.827,167.904 126.099 M135.309 126.704 C 134.870 128.780,135.086 133.661,135.681 135.123 C 136.372 136.819,137.063 138.002,137.064 137.492 C 137.064 137.288,136.910 136.993,136.722 136.836 C 136.533 136.680,136.379 136.379,136.379 136.168 C 136.379 135.958,136.284 135.688,136.167 135.568 C 135.406 134.792,135.002 129.966,135.481 127.375 C 135.753 125.906,135.602 125.318,135.309 126.704 M108.578 127.184 C 108.337 128.333,108.388 133.233,108.646 133.694 C 108.775 133.922,108.852 132.604,108.852 130.194 C 108.852 125.995,108.845 125.917,108.578 127.184 M156.139 130.211 C 156.139 132.806,156.209 133.904,156.353 133.567 C 156.470 133.292,156.566 131.782,156.566 130.211 C 156.566 128.641,156.470 127.131,156.353 126.855 C 156.209 126.519,156.139 127.617,156.139 130.211 M162.256 126.695 C 161.961 127.417,162.059 133.453,162.376 134.095 C 162.646 134.642,162.654 134.632,162.547 133.866 C 162.260 131.809,162.201 129.722,162.386 128.155 C 162.595 126.376,162.558 125.956,162.256 126.695 M183.150 127.365 C 183.372 128.816,183.373 131.570,183.151 133.181 C 183.007 134.225,183.025 134.360,183.260 133.981 C 183.659 133.335,183.663 126.918,183.265 126.520 C 183.033 126.288,183.011 126.454,183.150 127.365 M231.755 127.013 C 232.001 128.208,232.364 128.689,232.187 127.584 C 232.107 127.082,231.939 126.568,231.816 126.442 C 231.668 126.292,231.647 126.488,231.755 127.013 M248.538 126.914 C 248.258 127.649,248.244 128.325,248.513 128.030 C 248.740 127.782,249.049 126.328,248.875 126.328 C 248.812 126.328,248.661 126.592,248.538 126.914 M113.679 127.527 C 113.494 128.218,113.528 132.281,113.723 132.773 C 113.808 132.988,113.878 131.780,113.878 130.089 C 113.878 126.746,113.880 126.777,113.679 127.527 M167.232 128.518 C 166.993 129.890,167.055 131.890,167.373 133.027 C 167.614 133.893,167.647 133.220,167.435 131.727 C 167.289 130.695,167.296 129.676,167.455 128.680 C 167.586 127.857,167.650 127.140,167.596 127.086 C 167.542 127.032,167.379 127.677,167.232 128.518 M178.070 130.211 C 178.070 131.821,178.145 133.019,178.238 132.874 C 178.330 132.729,178.405 131.531,178.405 130.211 C 178.405 128.892,178.330 127.694,178.238 127.549 C 178.145 127.404,178.070 128.602,178.070 130.211 M194.318 127.955 C 194.096 129.061,194.151 131.597,194.418 132.610 C 194.679 133.600,195.576 135.465,195.792 135.465 C 195.865 135.465,195.608 134.826,195.221 134.045 C 194.555 132.702,194.517 132.480,194.517 129.933 C 194.517 126.945,194.518 126.952,194.318 127.955 M151.114 130.211 C 151.114 131.695,151.189 132.790,151.281 132.645 C 151.374 132.500,151.449 131.405,151.449 130.211 C 151.449 129.018,151.374 127.922,151.281 127.777 C 151.189 127.632,151.114 128.728,151.114 130.211 M189.064 128.673 C 188.954 129.282,188.955 130.541,189.065 131.529 L 189.262 133.295 189.331 131.868 C 189.368 131.082,189.368 129.797,189.330 129.012 L 189.260 127.584 189.064 128.673 M242.955 129.023 C 242.825 129.790,242.985 132.493,243.172 132.682 C 243.211 132.721,243.228 131.719,243.211 130.454 C 243.175 127.879,243.161 127.801,242.955 129.023 M248.167 130.211 C 248.167 131.279,248.206 131.716,248.254 131.182 C 248.302 130.648,248.302 129.774,248.254 129.240 C 248.206 128.706,248.167 129.143,248.167 130.211 M231.886 132.735 C 231.593 134.102,231.586 134.327,231.849 133.866 C 232.084 133.454,232.413 131.582,232.249 131.582 C 232.186 131.582,232.022 132.101,231.886 132.735 M248.413 133.067 C 248.503 133.444,248.670 133.848,248.784 133.965 C 248.904 134.088,248.901 133.858,248.775 133.420 C 248.497 132.451,248.198 132.159,248.413 133.067 M258.835 133.231 C 258.682 133.643,258.462 134.135,258.346 134.323 C 258.230 134.512,258.024 134.880,257.889 135.142 C 257.626 135.650,256.639 136.323,255.514 136.762 C 255.069 136.935,254.973 137.036,255.242 137.047 C 256.488 137.099,258.376 135.289,259.015 133.430 C 259.361 132.422,259.201 132.245,258.835 133.231 M237.013 133.680 C 236.929 134.222,236.805 134.859,236.738 135.094 C 236.665 135.350,236.709 135.465,236.847 135.380 C 237.096 135.226,237.473 132.999,237.282 132.808 C 237.219 132.745,237.098 133.137,237.013 133.680 M243.319 133.524 C 243.314 133.901,243.453 134.517,243.627 134.894 L 243.943 135.580 243.807 134.780 C 243.554 133.288,243.331 132.713,243.319 133.524 M150.364 134.310 C 149.810 135.519,149.036 136.202,147.640 136.714 C 147.076 136.921,146.937 137.038,147.243 137.048 C 148.432 137.089,151.264 134.319,150.962 133.411 C 150.919 133.283,150.650 133.687,150.364 134.310 M263.884 134.266 C 263.135 137.081,261.416 139.320,259.008 140.618 C 258.215 141.045,257.692 141.397,257.846 141.400 C 259.870 141.437,263.649 137.060,264.201 134.038 C 264.421 132.833,264.228 132.971,263.884 134.266 M177.289 134.449 C 176.691 135.576,175.948 136.207,174.596 136.735 L 173.729 137.073 174.482 136.958 C 175.717 136.770,177.408 135.233,177.825 133.919 C 178.075 133.131,177.893 133.311,177.289 134.449 M167.676 133.809 C 167.676 133.918,167.825 134.207,168.007 134.451 C 168.327 134.879,168.334 134.876,168.208 134.377 C 168.078 133.861,167.676 133.432,167.676 133.809 M189.523 134.340 C 189.715 135.344,190.412 137.145,190.893 137.879 C 191.516 138.829,191.481 138.349,190.844 137.210 C 190.516 136.623,190.110 135.620,189.941 134.981 C 189.584 133.627,189.304 133.198,189.523 134.340 M155.716 134.723 C 155.655 134.943,155.533 135.380,155.446 135.694 C 155.341 136.077,155.364 136.190,155.519 136.037 C 155.770 135.787,156.134 134.323,155.944 134.323 C 155.880 134.323,155.777 134.503,155.716 134.723 M231.253 134.609 C 231.151 134.766,230.965 135.095,230.839 135.340 C 230.712 135.585,230.044 136.086,229.354 136.454 C 228.542 136.886,228.331 137.067,228.758 136.967 C 229.636 136.760,230.901 135.773,231.316 134.971 C 231.649 134.326,231.604 134.066,231.253 134.609 M249.001 134.416 C 249.001 134.684,250.136 136.002,250.571 136.239 C 250.775 136.351,250.583 136.042,250.143 135.554 C 249.704 135.066,249.267 134.568,249.173 134.449 C 249.078 134.330,249.001 134.315,249.001 134.416 M109.107 135.237 C 109.182 135.677,109.335 136.134,109.447 136.254 C 109.736 136.560,109.680 136.193,109.294 135.237 L 108.970 134.437 109.107 135.237 M182.447 135.574 C 182.251 136.149,182.185 136.562,182.299 136.491 C 182.522 136.353,183.024 134.747,182.886 134.609 C 182.841 134.564,182.644 134.998,182.447 135.574 M162.780 135.237 C 162.862 135.551,163.021 135.906,163.132 136.025 C 163.458 136.374,163.358 135.873,162.975 135.237 L 162.631 134.666 162.780 135.237 M114.677 135.042 C 114.677 135.635,116.767 137.080,117.579 137.048 C 117.805 137.040,117.580 136.883,117.080 136.699 C 116.580 136.516,115.835 136.041,115.424 135.643 C 115.013 135.245,114.677 134.975,114.677 135.042 M168.361 135.080 C 168.361 135.119,168.688 135.453,169.089 135.822 L 169.817 136.493 169.260 135.764 C 168.787 135.144,168.361 134.820,168.361 135.080 M196.231 135.865 C 196.231 136.156,197.929 137.068,198.432 137.046 C 198.708 137.035,198.617 136.943,198.172 136.785 C 197.796 136.652,197.204 136.345,196.859 136.103 C 196.513 135.861,196.231 135.754,196.231 135.865 M235.895 137.041 C 235.141 138.628,234.045 139.808,232.439 140.760 C 231.810 141.132,231.553 141.363,231.868 141.273 C 233.557 140.789,236.963 136.933,236.618 135.896 C 236.577 135.774,236.252 136.289,235.895 137.041 M143.137 136.603 C 143.260 136.727,143.718 136.882,144.153 136.949 L 144.946 137.070 144.146 136.742 C 143.177 136.344,142.830 136.297,143.137 136.603 M154.750 137.100 C 154.545 137.497,153.951 138.304,153.431 138.893 C 152.910 139.483,153.064 139.362,153.772 138.626 C 154.480 137.889,155.113 137.083,155.178 136.833 C 155.352 136.168,155.175 136.279,154.750 137.100 M163.335 136.520 C 163.335 136.646,163.486 136.948,163.671 137.192 C 163.855 137.436,164.006 137.533,164.006 137.407 C 164.006 137.282,163.855 136.979,163.671 136.735 C 163.486 136.491,163.335 136.395,163.335 136.520 M170.093 136.603 C 170.216 136.727,170.674 136.882,171.109 136.949 L 171.902 137.070 171.102 136.742 C 170.133 136.344,169.786 136.297,170.093 136.603 M251.175 136.615 C 251.312 136.836,252.642 137.154,252.794 137.002 C 252.853 136.944,252.486 136.791,251.980 136.662 C 251.474 136.534,251.112 136.512,251.175 136.615 M109.665 136.695 C 109.590 137.826,113.270 141.416,114.490 141.401 C 114.656 141.399,114.151 141.035,113.369 140.592 C 112.050 139.844,111.340 139.081,109.951 136.917 C 109.801 136.684,109.672 136.584,109.665 136.695 M245.044 137.713 C 245.514 138.575,247.060 140.079,247.883 140.474 C 248.234 140.643,248.144 140.510,247.630 140.100 C 246.598 139.278,245.808 138.492,245.152 137.636 L 244.628 136.950 245.044 137.713 M137.293 138.166 C 137.293 138.762,141.044 141.405,141.889 141.405 C 142.040 141.405,141.548 141.097,140.796 140.722 C 140.044 140.346,138.948 139.565,138.361 138.986 C 137.773 138.407,137.293 138.038,137.293 138.166 M180.236 139.011 C 179.678 139.578,178.603 140.348,177.847 140.722 C 177.090 141.095,176.603 141.402,176.764 141.403 C 177.418 141.407,179.280 140.231,180.345 139.139 C 180.969 138.501,181.427 137.978,181.364 137.978 C 181.301 137.978,180.793 138.443,180.236 139.011 M164.814 138.881 C 164.888 139.001,165.279 139.328,165.684 139.607 L 166.419 140.115 165.734 139.396 C 165.091 138.720,164.515 138.399,164.814 138.881 M191.662 138.761 C 191.662 139.014,192.649 139.953,193.375 140.390 C 194.151 140.858,194.019 140.694,192.633 139.469 C 192.099 138.997,191.662 138.678,191.662 138.761 M222.151 140.526 C 221.966 141.371,222.162 141.651,222.367 140.834 L 222.515 140.242 223.137 140.672 C 223.745 141.093,224.557 141.462,224.557 141.318 C 224.557 141.278,224.050 140.929,223.429 140.544 L 222.301 139.842 222.151 140.526 M121.759 140.754 C 121.145 141.292,121.092 141.389,121.531 141.172 C 121.845 141.017,122.297 140.723,122.535 140.519 C 122.955 140.160,122.964 140.190,122.842 141.519 C 122.766 142.344,122.792 142.708,122.907 142.433 C 123.215 141.695,123.171 140.033,122.844 140.044 C 122.687 140.049,122.199 140.368,121.759 140.754 M150.771 140.720 C 150.080 141.085,149.640 141.388,149.793 141.394 C 150.138 141.407,151.869 140.518,152.042 140.239 C 152.215 139.960,152.196 139.967,150.771 140.720 M166.662 140.286 C 166.844 140.581,168.581 141.447,168.817 141.361 C 168.924 141.322,168.453 141.017,167.771 140.682 C 167.089 140.347,166.590 140.169,166.662 140.286 M203.642 140.390 C 203.216 140.731,203.219 140.735,203.712 140.496 C 204.176 140.271,204.226 140.304,204.226 140.826 C 204.226 141.144,204.311 141.405,204.415 141.405 C 204.519 141.405,204.559 141.097,204.503 140.720 C 204.389 139.939,204.264 139.891,203.642 140.390 M202.399 141.062 C 202.006 141.287,201.943 141.391,202.199 141.397 C 202.404 141.401,202.699 141.251,202.856 141.062 C 203.203 140.643,203.132 140.643,202.399 141.062 M248.669 140.922 C 248.789 141.034,249.143 141.192,249.457 141.275 L 250.029 141.424 249.457 141.080 C 248.821 140.696,248.320 140.596,248.669 140.922 M115.089 141.665 C 115.491 142.087,119.853 142.099,120.503 141.680 C 120.911 141.416,120.878 141.401,120.191 141.533 C 119.209 141.722,115.952 141.704,115.295 141.505 C 114.875 141.379,114.841 141.405,115.089 141.665 M142.776 141.676 C 143.531 142.038,148.187 142.038,148.943 141.676 C 149.448 141.435,149.395 141.420,148.488 141.548 C 147.246 141.723,143.944 141.714,142.935 141.534 C 142.230 141.407,142.224 141.412,142.776 141.676 M169.732 141.676 C 170.488 142.038,175.144 142.038,175.899 141.676 C 176.451 141.412,176.445 141.407,175.740 141.534 C 174.731 141.714,171.429 141.723,170.187 141.548 C 169.280 141.420,169.227 141.435,169.732 141.676 M196.185 141.665 C 196.398 141.888,197.150 141.976,198.858 141.976 C 200.565 141.976,201.317 141.888,201.531 141.665 C 201.779 141.405,201.739 141.380,201.290 141.516 C 200.994 141.606,199.900 141.679,198.858 141.679 C 197.816 141.679,196.721 141.606,196.426 141.516 C 195.977 141.380,195.937 141.405,196.185 141.665 M225.197 141.665 C 225.596 142.083,230.182 142.091,230.840 141.674 C 231.246 141.417,231.211 141.401,230.533 141.532 C 229.506 141.730,226.107 141.719,225.438 141.516 C 224.989 141.380,224.949 141.405,225.197 141.665 M250.600 141.674 C 250.946 141.842,252.204 141.951,253.798 141.951 C 255.392 141.951,256.649 141.842,256.996 141.674 C 257.521 141.419,257.496 141.407,256.679 141.531 C 256.190 141.605,254.894 141.666,253.798 141.666 C 252.702 141.666,251.406 141.605,250.917 141.531 C 250.100 141.407,250.074 141.419,250.600 141.674 M121.593 144.054 C 121.062 144.607,120.721 145.060,120.834 145.060 C 121.141 145.060,122.673 143.563,122.673 143.263 C 122.673 142.920,122.699 142.900,121.593 144.054 M127.400 143.632 C 127.331 143.978,127.200 144.466,127.110 144.717 C 126.995 145.037,127.019 145.105,127.190 144.946 C 127.442 144.710,127.836 143.004,127.638 143.004 C 127.577 143.004,127.470 143.287,127.400 143.632 M119.360 145.223 C 119.109 145.283,118.801 145.433,118.675 145.555 C 118.415 145.808,119.599 145.577,120.160 145.265 C 120.559 145.042,120.191 145.023,119.360 145.223 M126.578 145.801 C 126.458 146.118,125.820 146.917,125.161 147.576 C 124.501 148.235,124.169 148.664,124.422 148.528 C 125.357 148.028,127.226 145.654,126.924 145.351 C 126.854 145.282,126.699 145.484,126.578 145.801 M115.820 145.951 C 115.206 146.033,114.813 146.197,114.844 146.360 C 114.903 146.667,116.745 149.400,116.893 149.400 C 117.003 149.400,116.964 149.334,115.915 147.741 C 114.955 146.283,114.953 146.209,115.877 146.175 C 116.844 146.140,118.285 145.796,117.419 145.807 C 117.105 145.811,116.385 145.876,115.820 145.951 M122.901 149.075 L 122.330 149.419 122.901 149.270 C 123.215 149.188,123.570 149.029,123.689 148.918 C 124.038 148.592,123.538 148.692,122.901 149.075 M120.745 149.657 C 119.474 149.955,119.387 150.171,120.617 149.972 C 121.672 149.801,122.695 149.397,121.987 149.430 C 121.799 149.439,121.240 149.541,120.745 149.657 M116.999 149.857 C 117.075 150.087,117.445 150.209,118.122 150.228 C 118.933 150.251,118.975 150.236,118.333 150.153 C 117.894 150.095,117.389 149.928,117.211 149.781 C 116.954 149.570,116.911 149.585,116.999 149.857 M160.007 180.313 C 159.943 180.479,159.925 181.636,159.966 182.883 L 160.041 185.151 160.089 182.703 L 160.137 180.255 162.593 180.182 L 165.049 180.108 162.586 180.060 C 160.720 180.023,160.095 180.085,160.007 180.313 M176.185 180.180 C 176.907 180.226,178.090 180.226,178.812 180.180 C 179.535 180.135,178.943 180.098,177.499 180.098 C 176.054 180.098,175.463 180.135,176.185 180.180 M192.397 180.178 L 194.845 180.255 194.922 182.703 L 195.000 185.151 194.987 182.638 L 194.974 180.126 192.461 180.113 L 189.949 180.100 192.397 180.178 M205.010 180.313 C 204.946 180.479,204.928 181.636,204.969 182.883 L 205.044 185.151 205.092 182.703 L 205.140 180.255 207.596 180.182 L 210.051 180.108 207.588 180.060 C 205.723 180.023,205.097 180.085,205.010 180.313 M221.188 180.180 C 221.910 180.226,223.093 180.226,223.815 180.180 C 224.537 180.135,223.946 180.098,222.501 180.098 C 221.057 180.098,220.465 180.135,221.188 180.180 M237.400 180.178 L 239.848 180.255 239.925 182.703 L 240.003 185.151 239.990 182.638 L 239.977 180.126 237.464 180.113 L 234.951 180.100 237.400 180.178 " stroke="none" fill="#e47c7c" fill-rule="evenodd"></path></g></svg>